<svg fill="#000000" xmlns="http://www.w3.org/2000/svg"  viewBox="0 0 64 64" width="64px" height="64px"><path d="M 22.511719 8.507813 C 22.316406 8.511719 22.117188 8.53125 21.917969 8.578125 C 17.59375 9.5 13.484375 11.003906 9.703125 13.046875 C 8.757813 13.558594 8 14.378906 7.5625 15.363281 C 4.242188 22.878906 1.792969 32.753906 0.671875 43.164063 C 0.492188 44.808594 1.152344 46.433594 2.429688 47.511719 C 6.265625 50.742188 10.683594 53.292969 15.558594 55.089844 C 15.90625 55.21875 16.261719 55.28125 16.613281 55.28125 C 17.726563 55.28125 18.785156 54.664063 19.308594 53.625 L 21.675781 48.886719 C 25.027344 49.621094 28.472656 50 32 50 C 35.527344 50 38.972656 49.621094 42.324219 48.886719 L 44.691406 53.625 C 45.214844 54.664063 46.273438 55.28125 47.386719 55.28125 C 47.738281 55.28125 48.09375 55.21875 48.441406 55.089844 C 53.316406 53.292969 57.734375 50.742188 61.570313 47.507813 C 62.847656 46.429688 63.507813 44.804688 63.328125 43.164063 C 62.207031 32.753906 59.761719 22.882813 56.4375 15.363281 C 56 14.378906 55.242188 13.558594 54.296875 13.046875 C 50.515625 11.003906 46.40625 9.503906 42.085938 8.578125 C 40.484375 8.234375 38.917969 9.203125 38.523438 10.78125 L 38.09375 12.515625 C 36.265625 12.207031 34.238281 12 32 12 C 29.761719 12 27.734375 12.207031 25.910156 12.515625 L 25.476563 10.78125 C 25.132813 9.398438 23.890625 8.484375 22.511719 8.507813 Z M 22.730469 10.523438 C 23.113281 10.589844 23.4375 10.871094 23.535156 11.265625 L 23.941406 12.902344 C 18.65625 14.121094 15.613281 16.160156 15.433594 16.28125 C 14.980469 16.59375 14.863281 17.214844 15.171875 17.671875 C 15.367188 17.953125 15.679688 18.105469 16 18.105469 C 16.195313 18.105469 16.390625 18.046875 16.5625 17.933594 C 16.621094 17.894531 22.464844 14 32 14 C 41.535156 14 47.378906 17.894531 47.4375 17.933594 C 47.890625 18.242188 48.511719 18.125 48.824219 17.671875 C 49.136719 17.214844 49.015625 16.59375 48.5625 16.28125 C 48.382813 16.160156 45.339844 14.125 40.054688 12.90625 L 40.464844 11.269531 C 40.597656 10.742188 41.125 10.414063 41.667969 10.53125 C 45.804688 11.417969 49.734375 12.855469 53.347656 14.808594 C 53.902344 15.109375 54.351563 15.59375 54.609375 16.175781 C 57.851563 23.507813 60.242188 33.167969 61.34375 43.378906 C 61.445313 44.359375 61.050781 45.332031 60.28125 45.980469 C 56.625 49.0625 52.40625 51.496094 47.75 53.214844 C 47.253906 53.394531 46.710938 53.1875 46.484375 52.730469 L 44.320313 48.40625 C 46.746094 47.757813 49.109375 46.914063 51.410156 45.878906 C 51.914063 45.652344 52.136719 45.0625 51.910156 44.558594 C 51.683594 44.050781 51.089844 43.832031 50.589844 44.058594 C 44.78125 46.671875 38.527344 48 32 48 C 25.472656 48 19.214844 46.671875 13.410156 44.058594 C 12.90625 43.832031 12.316406 44.054688 12.089844 44.558594 C 11.859375 45.058594 12.085938 45.652344 12.589844 45.878906 C 14.886719 46.914063 17.253906 47.757813 19.679688 48.40625 L 17.515625 52.730469 C 17.289063 53.1875 16.742188 53.398438 16.25 53.214844 C 11.59375 51.496094 7.375 49.0625 3.71875 45.980469 C 2.949219 45.332031 2.550781 44.359375 2.65625 43.375 C 3.757813 33.167969 6.148438 23.503906 9.390625 16.171875 C 9.648438 15.59375 10.097656 15.109375 10.652344 14.808594 C 14.265625 12.855469 18.195313 11.417969 22.332031 10.53125 C 22.46875 10.503906 22.601563 10.5 22.730469 10.523438 Z M 32 16.417969 C 31.449219 16.417969 31 16.867188 31 17.417969 L 31 19.175781 C 31 19.726563 31.449219 20.175781 32 20.175781 C 32.550781 20.175781 33 19.726563 33 19.175781 L 33 17.417969 C 33 16.863281 32.550781 16.417969 32 16.417969 Z M 26.753906 16.929688 C 26.628906 16.910156 26.492188 16.910156 26.359375 16.941406 C 25.824219 17.074219 25.492188 17.613281 25.621094 18.152344 L 26.035156 19.871094 C 26.148438 20.328125 26.558594 20.636719 27.011719 20.636719 C 27.085938 20.636719 27.164063 20.628906 27.246094 20.609375 C 27.78125 20.480469 28.113281 19.9375 27.984375 19.402344 L 27.566406 17.683594 C 27.46875 17.277344 27.140625 16.992188 26.753906 16.929688 Z M 37.246094 16.929688 C 36.863281 16.992188 36.53125 17.277344 36.433594 17.683594 L 36.015625 19.402344 C 35.886719 19.9375 36.21875 20.480469 36.753906 20.609375 C 36.835938 20.628906 36.914063 20.636719 36.988281 20.636719 C 37.441406 20.636719 37.851563 20.328125 37.964844 19.871094 L 38.378906 18.152344 C 38.507813 17.613281 38.175781 17.074219 37.640625 16.941406 C 37.507813 16.910156 37.375 16.910156 37.246094 16.929688 Z M 21.355469 18.394531 C 21.226563 18.402344 21.097656 18.441406 20.972656 18.5 C 20.480469 18.75 20.28125 19.351563 20.53125 19.84375 L 21.34375 21.453125 C 21.523438 21.800781 21.875 22 22.238281 22 C 22.390625 22 22.542969 21.964844 22.6875 21.890625 C 23.183594 21.640625 23.378906 21.042969 23.128906 20.546875 L 22.316406 18.941406 C 22.128906 18.570313 21.746094 18.367188 21.355469 18.394531 Z M 42.644531 18.394531 C 42.253906 18.371094 41.871094 18.574219 41.683594 18.941406 L 40.871094 20.546875 C 40.621094 21.042969 40.816406 21.644531 41.3125 21.890625 C 41.457031 21.964844 41.609375 22 41.761719 22 C 42.125 22 42.476563 21.800781 42.65625 21.453125 L 43.46875 19.84375 C 43.71875 19.351563 43.519531 18.75 43.027344 18.5 C 42.902344 18.441406 42.773438 18.40625 42.644531 18.394531 Z M 22 27 C 18.691406 27 16 30.140625 16 34 C 16 37.859375 18.691406 41 22 41 C 25.308594 41 28 37.859375 28 34 C 28 30.140625 25.308594 27 22 27 Z M 42 27 C 38.691406 27 36 30.140625 36 34 C 36 37.859375 38.691406 41 42 41 C 45.308594 41 48 37.859375 48 34 C 48 30.140625 45.308594 27 42 27 Z M 22 29 C 24.207031 29 26 31.242188 26 34 C 26 36.757813 24.207031 39 22 39 C 19.792969 39 18 36.757813 18 34 C 18 31.242188 19.792969 29 22 29 Z M 42 29 C 44.207031 29 46 31.242188 46 34 C 46 36.757813 44.207031 39 42 39 C 39.792969 39 38 36.757813 38 34 C 38 31.242188 39.792969 29 42 29 Z M 22.839844 51.074219 C 22.453125 51.136719 22.125 51.421875 22.027344 51.824219 C 21.898438 52.359375 22.230469 52.898438 22.765625 53.03125 C 25.765625 53.75 28.871094 54.117188 32 54.117188 C 32.933594 54.117188 33.878906 54.085938 34.808594 54.019531 C 35.359375 53.980469 35.769531 53.503906 35.734375 52.953125 C 35.695313 52.402344 35.222656 51.988281 34.667969 52.023438 C 30.84375 52.292969 26.929688 51.976563 23.234375 51.085938 C 23.097656 51.054688 22.964844 51.050781 22.839844 51.074219 Z M 41.164063 51.074219 C 41.035156 51.050781 40.902344 51.054688 40.765625 51.085938 C 39.925781 51.289063 39.074219 51.460938 38.234375 51.601563 C 37.6875 51.691406 37.320313 52.207031 37.410156 52.753906 C 37.492188 53.242188 37.917969 53.589844 38.394531 53.589844 C 38.453125 53.589844 38.507813 53.585938 38.5625 53.574219 C 39.449219 53.425781 40.347656 53.242188 41.234375 53.03125 C 41.769531 52.902344 42.101563 52.359375 41.972656 51.824219 C 41.875 51.421875 41.546875 51.136719 41.164063 51.074219 Z"/></svg>