<svg xmlns="http://www.w3.org/2000/svg" xmlns:xlink="http://www.w3.org/1999/xlink" version="1.1" preserveAspectRatio="none" x="0px" y="0px" viewBox="0 0 100 125">
    <defs>
        <g id="a">
            <path fill="#000000" stroke="none" d=" M 58.55 23.1 L 56.1 23.1 Q 51.7 23.1 49.75 25.45 47.8 27.85 47.8 34.3 L 47.8 37.25 Q 47.8 43 46.3 45.25 44.8 47.5 41.45 47.5 L 41.45 52.5 Q 44.8 52.5 46.3 54.75 47.8 57.05 47.8 62.75 L 47.8 65.75 Q 47.8 72.15 49.75 74.55 51.7 76.9 56.1 76.9 L 58.55 76.9 58.55 72.9 57.6 72.9 Q 54.75 72.9 53.65 71.65 52.55 70.45 52.55 65.8 L 52.55 63.85 Q 52.55 57.5 51.05 54.5 49.6 51.45 46.05 50.05 49.6 48.55 51.05 45.55 52.55 42.55 52.55 36.2 L 52.55 34.2 Q 52.55 29.6 53.65 28.35 54.75 27.1 57.6 27.1 L 58.55 27.1 58.55 23.1 Z" />
        </g>
    </defs>
    <g transform="matrix( 1, 0, 0, 1, 0,0) ">
        <use xlink:href="#a" />
    </g>
</svg>