<svg xmlns="http://www.w3.org/2000/svg" xmlns:xlink="http://www.w3.org/1999/xlink" version="1.1" preserveAspectRatio="none" x="0px" y="0px" viewBox="0 0 100 125">
    <defs>
        <g id="a">
            <path fill="#000000" stroke="none" d=" M 43.9 23.1 L 41.45 23.1 41.45 27.1 42.4 27.1 Q 45.25 27.1 46.35 28.35 47.45 29.6 47.45 34.2 L 47.45 36.2 Q 47.45 42.55 48.95 45.55 50.4 48.55 53.95 50.05 50.4 51.45 48.95 54.5 47.45 57.5 47.45 63.85 L 47.45 65.8 Q 47.45 70.45 46.35 71.65 45.25 72.9 42.4 72.9 L 41.45 72.9 41.45 76.9 43.9 76.9 Q 48.3 76.9 50.25 74.55 52.2 72.15 52.2 65.75 L 52.2 62.75 Q 52.2 57.05 53.7 54.75 55.2 52.5 58.55 52.5 L 58.55 47.5 Q 55.2 47.5 53.7 45.25 52.2 43 52.2 37.25 L 52.2 34.3 Q 52.2 27.85 50.25 25.45 48.3 23.1 43.9 23.1 Z" />
        </g>
    </defs>
    <g transform="matrix( 1, 0, 0, 1, 0,0) ">
        <use xlink:href="#a" />
    </g>
</svg>